<?xml version="1.0" encoding="UTF-8" standalone="no"?>
<!-- Created with Inkscape (http://www.inkscape.org/) -->
<svg id="svg3414" xmlns:rdf="http://www.w3.org/1999/02/22-rdf-syntax-ns#" xmlns="http://www.w3.org/2000/svg" height="833" viewBox="0 0 716 833" width="716" version="1.1" xmlns:cc="http://creativecommons.org/ns#" xmlns:dc="http://purl.org/dc/elements/1.1/">
 <metadata id="metadata3420">
  <rdf:RDF>
   <cc:Work rdf:about="">
    <dc:format>image/svg+xml</dc:format>
    <dc:type rdf:resource="http://purl.org/dc/dcmitype/StillImage"/>
    <dc:title/>
   </cc:Work>
  </rdf:RDF>
 </metadata>
 <path id="path3432" d="m267.28 813.49c-47.735-1.0438-62.886-3.7216-65.467-11.57-0.8067-2.4533-0.64092-4.7056 0.78771-10.702 4.3861-18.409 9.195-65.56 14.765-144.77 2.1472-30.54 11.914-198.69 11.914-205.15v-5.601l-53.919-0.009c-80.706-0.019-106.2-1.5794-117.83-7.2122-10.915-5.2863-10.357-15.902 1.0592-20.17 13.793-5.1563 27.849-5.8996 122.74-6.4902 77.618-0.48311 84.689-0.39832 85.876 1.0298 1.0876 1.3094 1.1193 18.311 0.2002 107.15-2.3336 225.57-1.4194 250.51 9.5515 260.57 3.0524 2.8005 10.263 4.0987 16.832 3.0305 19.145-3.1043 20.988-20.145 24.912-230.14 1.7387-92.606-0.532-122.14-10.955-142.67-9.2731-18.274-23.002-25.594-55.658-29.647-4.4465-0.55061-39.506-1.386-77.909-1.8512-85.453-1.0443-104.92-2.3353-116.43-7.737-5.7881-2.7246-7.5629-5.0314-7.5629-9.8539 0-5.1074 2.0057-7.4435 8.4427-9.8331 12.634-4.6906 29.787-5.822 97.966-6.4614 97.947-0.91849 135.72 1.6894 149.83 10.342 1.9327 1.1856 5.1421 4.4865 7.1319 7.3353 1.9899 2.8487 5.3255 6.3439 7.4123 7.7671 10.688 7.2879 31.632 8.9852 46.491 3.7673 6.7991-2.3877 11.142-5.6381 15.348-11.489 4.6738-6.5001 12.774-9.684 33.642-13.222 57.151-9.6907 172.11-8.4374 213.87 2.331 11.846 3.0548 16.056 6.012 16.056 11.277 0 11.209-22.184 14.721-93.586 14.821-20.38 0.0284-51.591 0.44835-69.358 0.93313-42.531 1.1604-55.429 3.0843-70.646 10.537-22.654 11.095-31.247 31.566-34.454 82.078-2.0946 32.993 1.4031 220.61 4.9187 263.84 2.4489 30.115 6.1929 42.381 14.198 46.518 1.8992 0.98131 5.6437 1.4219 12.064 1.4194 7.6141-0.003 9.8754-0.34729 12.408-1.89 7.0342-4.2852 9.3807-13.032 10.901-40.638 1.2219-22.189 0.5834-57.002-4.0927-223.12-1.6069-57.085-2.6892-104.4-2.405-105.14 0.4391-1.1435 10.67-1.3418 68.242-1.3232 113.91 0.0369 140.58 1.9032 149.12 10.435 2.1854 2.1836 2.6894 3.5188 2.6894 7.1259 0 14.015-18.768 16.508-124.73 16.564-43.818 0.0233-54.039 0.26422-54.43 1.2832-0.5447 1.4182 8.8175 143.84 12.461 189.56 3.1768 39.866 6.6215 77.427 9.4896 103.48 2.3097 20.977 11.036 79.566 12.336 82.828 0.6287 1.5767-4.6012 1.6518-102.76 1.4749-56.874-0.0949-116.04-0.45567-131.45-0.79743zm-184.1-2.82c-7.8384-1.6328-15.459-6.5883-25.469-16.556-22.075-21.996-40.688-53.466-45.876-77.559-0.8932-4.1485-1.8675-7.3003-2.1649-7.006-0.29729 0.29429-0.80038-2.5537-1.1179-6.3415-0.61089-7.2813 0.13061-18.056 1.1972-17.392 0.3484 0.20885 1.1244-1.9461 1.7244-4.813 1.9082-9.085 6.6082-17.268 14.441-25.138 8.0683-8.1167 18.542-16.062 21.16-16.062 2.3141 0 2.4483 0.53192 3.5006 13.878 0.77866 9.8758 1.578 13.505 5.6464 25.632 13.207 39.364 39.004 86.46 49.857 91.02 3.2977 1.3854 8.3474 0.49297 11.961-2.1138 1.3469-0.97172 3.7315-4.3109 5.2991-7.4203 2.8329-5.619 2.85-5.7491 2.7908-21.317-0.0484-12.735-0.4562-17.35-2.1814-24.682-3.2209-13.699-9.6721-32.191-17.758-50.959-13.602-31.536-18.688-50.618-18.679-70.079 0.007-17.219 3.4636-28.301 13.036-41.794 8.8206-12.434 36.194-33.905 40.918-32.094 2.3411 0.8976 3.2015 6.9033 4.1937 29.269 1.3048 29.416 5.6455 53.924 14.375 81.167 12.442 38.827 10.859 84.344-4.2453 122.06-6.9705 17.408-16.54 30.604-30.106 41.519-17.57 14.137-30.551 19.26-42.501 16.774zm514.07-0.43406c-11.088-3.1198-19.451-8.332-29.537-18.41-17.849-17.834-25.955-34.363-28.636-58.383-2.3298-20.876-1.0739-70.264 3.7448-147.28 2.1591-34.504 3.1101-44.628 5.7079-60.756 2.2886-14.209 3.9122-19.843 5.825-20.211 2.4489-0.47123 10.835 6.9036 18.981 16.693 14.72 17.688 31.724 45.658 35.518 58.421 4.4955 15.126-1.5166 44.616-15.708 77.053-19.148 43.763-23.297 58.12-23.184 80.218l0.065 12.816 5.6497 18.037c4.7058 15.024 5.9483 18.037 7.437 18.037 1.3087 0 6.9773-8.1353 21.168-30.378 30.29-47.48 43.086-75.401 44.93-98.046 1.0546-12.92 1.9477-15.398 5.5106-15.398 3.2635 0 12.642 5.4688 17.603 10.265 1.9916 1.9253 4.8366 5.6365 6.3222 8.2471 2.9547 5.1921 6.6837 16.401 6.6837 20.091 0 1.2811 0.3667 2.1028 0.815 1.826 0.4483-0.27683 1.0527 2.6366 1.3432 6.4744 0.6105 8.0656-0.1971 22.546-1.222 21.913-0.3829-0.23645-0.9812 1.8048-1.3295 4.536-2.3969 18.795-12.866 43.29-25.893 60.583-8.0165 10.641-20.54 22.757-28.32 27.398-11.047 6.5906-23.799 8.9712-33.474 6.2489zm-255.26-488.12c-4.8502-1.4862-11.69-7.5903-20.479-18.276-4.8702-5.9214-10.485-8.8605-20.503-10.731-10.568-1.9735-71.464-1.4718-115.91 0.95502-80.897 4.4168-112.6 4.5876-125.58 0.67648-13.124-3.9523-12.819-16.458 0.54121-22.201 6.8898-2.9615 14.637-3.8281 43.805-4.9002 32.005-1.1764 61.444-2.9065 106.89-6.2822 41.5-3.0826 74.943-3.4336 86.4-0.90666 11.731 2.5873 18.391 5.7237 28.617 13.477 13.451 10.199 17.002 12.137 22.194 12.115 5.1147-0.0219 9.6806-2.203 17.657-8.4347 3.1354-2.4496 7.8004-5.5186 10.367-6.8201 10.125-5.1347 35.429-9.7391 64.562-11.747 21.468-1.4797 86.688-0.63579 108.92 1.4094 52.456 4.8258 85.549 12.737 94.833 22.67 1.7354 1.8567 2.1352 3.2173 1.9002 6.4672-0.248 3.4297-0.8153 4.4632-3.403 6.2-9.4567 6.3468-43.915 6.1718-154.14-0.7824-9.6673-0.60994-31.9-1.1217-49.406-1.1374-42.938-0.0383-49.333 1.3749-63.37 14.007-14.878 13.389-24.068 17.251-33.89 14.241zm4.5183-71.194c-2.0325-1.3735-6.379-5.0006-9.6588-8.0603-7.2197-6.7348-19.781-13.067-31.714-15.987-4.5229-1.1068-13.978-2.398-21.011-2.8692-14.584-0.97723-21.991-3.0308-29.937-8.3008-9.7842-6.4888-16.341-18.36-19.805-35.858-2.0543-10.375-2.3195-43.189-0.4871-60.282 7.3075-68.164 13.119-84.242 29.741-82.275 4.9255 0.58288 10.872 3.2673 13.27 5.9905 6.7816 7.7008 10.291 28.583 10.345 61.569 0.04 24.059 1.6184 58.357 3.2571 70.759 3.1221 23.628 8.2417 35.924 13.588 32.634 13.796-8.4869 39.971-107.9 40.465-153.69 0.133-12.239-0.038-13.636-2.0902-17.657-2.7459-5.3667-2.4418-7.3073 1.5581-10.005 3.7763-2.5428 12.514-3.6442 23.375-2.9465 9.1615 0.58841 12.507 1.9349 13.765 5.5392 1.3156 3.7707-0.025 7.8805-6.9702 21.363-7.1675 13.915-9.0745 20.933-9.0556 33.331 0.017 11.275 1.1479 16.321 9.0007 40.151 9.2194 27.977 13.818 48.172 15.241 66.927 0.6767 8.9231 1.3081 10.94 4.5325 14.477 2.4843 2.7252 6.1462 2.7247 10.264-0.00094 9.5419-6.3172 11.603-26.882 6.5397-65.265-7.3688-55.865 1.1476-91.448 24.493-102.34 4.5048-2.1013 6.7972-2.5437 13.223-2.552 7.3349-0.009 7.9451 0.15078 10.812 2.8381 6.2549 5.8622 8.7592 16.221 10.485 43.373 1.4664 23.067 0.5858 84.707-1.408 98.549-4.9007 34.029-14.33 41.808-52.841 43.589-14.735 0.68133-17.318 1.0521-22.697 3.2596-9.8374 4.0366-14.338 7.0846-23.383 15.838-4.7031 4.5508-9.4849 8.7553-10.626 9.3433-3.508 1.8072-8.3221 1.2474-12.281-1.4282z" fill="#65638e"/>
 <path id="path3430" fill="#c83038" d="m353.57 181.4c-0.86436-0.0123-1.7269 0.008-2.5859 0.0977 1.6784 0.00002 3.3567 0.002 5.0352 0.002-0.81669-0.0433-1.6342-0.0881-2.4492-0.0996zm200.99 91.777c-0.006 0.0722-0.008 0.13187-0.0137 0.20313l0.0879 0.0391c-0.0244-0.0807-0.0671-0.32623-0.0742-0.24219zm-495.87 0.73828c-0.0338 0.0517-0.0763 0.10183-0.10547 0.1543-0.01 0.018-0.008 0.0149-0.01562 0.0293 0.00074 0.0143 0.00085 0.0286 0.002 0.043 0.0231-0.032 0.0827-0.12278 0.11719-0.17382 0.003-0.0188-0.001-0.0342 0.002-0.0527zm-2.043 1.0527c0.002 0.0233 0.0048 0.047 0.0078 0.0703 0.0373-0.00032 0.17664-0.002 0.21289-0.002 0.00066-0.021 0.00086-0.0436 0.002-0.0645-0.0689-0.00082-0.15217-0.003-0.22266-0.004zm2.332 0.0273c-0.004 0.006-0.008 0.0114-0.01172 0.0176 1.5248-0.0116 1.1022-0.011 0.01172-0.0176zm579.66 21.029c0.0448 0.29788 0.0902 0.59555 0.13477 0.82617 0.4023-0.1161 0.76719-0.24053 1.1348-0.36524 0.0192-0.13276 0.0322-0.27142 0.0488-0.41015-0.39366-0.0129-0.84161-0.0309-1.3184-0.0508zm-301.42 11.777c-0.41149 0.0456-0.82298 0.0927-1.2344 0.13477-0.0346 0.34124-0.071 0.64545-0.10351 0.98437 0.34436 0.0433 0.68881 0.086 1.0332 0.12891 0.11532-0.009 0.22858-0.014 0.3418-0.0195-0.0189-0.40943-0.022-0.81904-0.0371-1.2285zm-3.4297 0.30859c-0.23109 0.0147-0.46224 0.0422-0.69336 0.0527 0.15125 0.12357 0.28823 0.25746 0.42578 0.39062 0.0929-0.15289 0.17808-0.29523 0.26758-0.44336zm185.82 25.541c-50.835 0.007-83.237 2.2094-109.26 7.4258-15.995 3.2059-21.389 5.6249-26.082 11.699-2.1161 2.7388-5.3201 6.0489-7.1211 7.3574-7.8831 5.7275-23.049 8.7221-35.932 7.0938-14.234-1.799-21.423-5.651-27.432-14.693-7.6275-11.479-21.406-14.625-73.203-16.717-30.518-1.2326-132.6-0.53794-151.85 1.0332-21.998 1.796-31.229 4.0862-35.125 8.7129-6.533 7.756 1.1076 15.293 18.545 18.283 14.398 2.4777 38.898 3.4656 108.74 4.377 71.743 0.93983 79.666 1.4128 95.172 5.6562 1.6519 0.4528 3.1774 0.91126 4.6191 1.3808 0.87492-0.01 1.6435 0.0548 2.0859 0.27735 0.55839 0.2809 1.0683 0.63502 1.5586 1.0195 0.74191 0.28971 1.462 0.58714 2.1562 0.89453 4.059-0.18173 7.151 0.005 11.168 1.2988 1.2525 0.40344 1.7208 0.69335 1.9297 0.88281 0.25567 0.0643 0.54095 0.13841 0.69922 0.16797-0.65644 0.16287-0.39657 0.10656-0.69922-0.16797-0.6528-0.16431-1.3468-0.34415-0.98632-0.14648 1.9837 1.0878 4.0749 1.9807 6.1894 2.7852 0.34553 0.13145-1.0914-0.98553-0.77344-0.79687 1.9592 1.1626 2.8573 2.0505 3.1856 2.2969-0.007-0.16781-0.005-0.35327 0.006-0.5625 0.18364 0.60464 0.2228 0.73413-0.006 0.5625 0.10955 2.6104 2.328 0.45618 3.2676 1.1172 0.43259 0.30433 4.6208 3.1315 6.1816 5.6621 0.66807-0.07 1.8042-0.64569 1.834-0.0293 0.003 0.0524-0.005 0.11445-0.004 0.16797 0.17976-0.0667 0.37366-0.12125 0.58985-0.1582-0.97134-0.48351-1.1914-0.5675 0.1582-0.0215 0.96266-0.1218 1.6151 0.1792 2.0274 0.79102 1.0527 0.41725 1.812 0.72777 3.7383 1.4609 3.461 1.4132 5.3649 3.6905 6.8594 7.293 0.11624 0.2802 0.19557 0.57056 0.25195 0.86718 0.43384 0.25571 0.80271 1.039 1.1582 1.6621 2.4805 2.0717 2.3961 2.1385 3.3476 5.5078 0.009-0.11968 0.0304-0.23701 0.0781-0.35352 0.25026-0.61118 0.70188 1.1305 0.91992 1.7539 0.0944 0.27003 0.16915 0.5472 0.25586 0.82031 0.88986 0.59676 1.7457 1.2213 2.2891 2.1172 1.9665 3.2423 2.1143 5.2293 2.0195 7.7734 0.41262 0.63614 0.82569 1.3814 1.2324 2.1562 0.12428 0.11295 0.29 0.27705 0.38086 0.34961 0.18415 0.46701 0.79748 1.8387 0.55273 1.4004-0.35864-0.64226-0.6386-1.188-0.93359-1.75-0.44668-0.40591-0.9587-0.8906-1.2715-1.1348-0.005 0.094-0.007 0.19898-0.0117 0.29492 0.007 0.009 0.0146 0.018 0.0215 0.0273 0.032 0.0433 0.0516 0.10688 0.0703 0.17188 1.3877 2.4809 3.2026 4.7057 4.7852 7.0703-0.002 0.0384-0.00053 0.029-0.002 0.0664 0.62658 0.15676 1.2446 0.34556 1.8359 0.62305 1.7564 0.82419 2.3018 4.2769 2.6055 7.5293 0.0649 0.1113 0.16136 0.2831 0.2168 0.375 0.0237 0.0695 0.0518 0.13772 0.0762 0.20703 1.0902-1.6096 2.5906-2.3627 4.8027-4.0508-0.007-0.008-0.005-0.0232 0.006-0.0469-1.2763 0.61427-0.54441 0.0454 0.42578-0.60157 1.5909-2.1943 1.8562-2.1013 2.3047-2.1387h0.002c0.24212-0.67636 0.5156-1.3356 0.97071-1.877 0.254-0.30213 0.7121-0.70207 1.2676-1.1621 0.0341-0.073 0.0697-0.14558 0.10351-0.21875-9.3643 2.3677 4.2691-3.0798 2.8887-3.9492-0.21736-0.13689-0.4608 0.89813-0.41992 0.64453 0.0887-0.55023 0.26307-1.106 0.56836-1.5723 0.31749-0.48491 0.48251-0.7166 0.73047-1.0898 0.0285-0.0492 0.0619-0.0912 0.0918-0.13867 0.43331-0.6498 0.876-1.303 1.1777-1.6992 0.39818-1.2659 0.82573-2.0059 1.4844-2.5879 0.1431-0.28199 0.3102-0.48703 0.62109-0.75195 0.0536-0.0801 0.13175-0.20815 0.17773-0.27539 0.64554-0.94394 1.5525-1.6724 2.4395-2.4082 0.31761-0.38195 0.63008-0.75727 0.88281-1.0488 1.3322-4.5006 0.73293-2.7171 6.0781-7.1445 0.16859-0.13964-0.11251 0.0256-0.45703 0.23437-0.0932 0.0681-0.24914 0.17521-0.31836 0.22852l0.10352-0.0996c-0.50497 0.30816-1.0441 0.63843-0.81836 0.44336 0.57976-0.50099 1.1849-0.9832 1.8262-1.4062l1.8301-1.748c-0.52557 0.4607-2.0616 1.8837-1.5762 1.3809 0.85268-0.88321 1.6633-1.8295 2.6016-2.6172 0.11056-0.29878 0.22422-0.60629 0.32031-0.85156 0.19095-0.48739 0.47451-0.93337 0.71094-1.4004 1.084-1.5214 2.038-3.1445 3.252-4.5645 0.42552-0.49774 1.0724-0.74825 1.6094-1.123-0.0958 0.12844-0.19463 0.57572-0.0703 0.47461 0.6955-0.56576 1.3942-1.1321 2.0859-1.7051 0.18458-0.33519 0.54118-0.94538 0.69922-1.2383 0.10295-0.0675 0.30648-0.21956 0.44922-0.32031 2.1942-3.1684 4.1487-5.9594 8.4531-7.4277 1.6014-0.47015 3.1745-1.0523 4.8047-1.4102 0.57015-0.12513 2.0731-0.20938 3.6406-0.23046 1.8451-1.2098 3.7859-2.3284 5.8535-3.3398 19.097-9.3374 42.223-11.427 127.18-11.49 85.255-0.0636 107.4-3.2606 106.24-15.338-0.2742-2.8551-0.91605-3.474-6.4805-6.2441-15.914-7.922-57.211-12.038-120.66-12.029h-0.002zm-129.03 57.51c-0.33266 0.48036-0.66187 0.95354-1.0156 1.4492 1.0096-0.84047 1.9972-1.7036 2.8984-2.6562 0.55438-0.58598-0.94733 0.54671-1.8828 1.207zm-1.0156 1.4492c-0.0441 0.0367-0.0886 0.0728-0.13282 0.10938-0.10994 0.19966-0.17472 0.32475-0.0586 0.16406 0.0679-0.0939 0.12469-0.17995 0.19141-0.27344zm-47.354 29.109c-0.031-0.0555-0.0632-0.1103-0.0937-0.16602-0.0258 0.5382-0.0547 1.0346-0.0684 1.6504-0.011 0.49898 0.33525-0.88208 0.16211-1.4844zm-0.0937-0.16602c0.00052-0.0108 0.001-0.0224 0.002-0.0332-0.0219-0.0294-0.0462-0.0567-0.0684-0.0859 0.0216 0.04 0.0445 0.0793 0.0664 0.11914zm-20.865-30.252c-0.57078-0.22623-1.6764-0.64904-2.0274-0.79102-0.0376 0.005-0.0708 0.004-0.10937 0.01-0.0174 0.003-0.0316 0.009-0.0488 0.0117 0.59709 0.29722 1.4399 0.73914 2.4629 1.3203-0.0773-0.20274-0.16816-0.38874-0.27734-0.55078zm0.27734 0.55078c0.20363 0.53432 0.29188 1.2101 0.30859 1.9688 3.2152 0.31595 2.639 0.45033 0.91797 1 0.10103 0.10956 0.16984 0.18219 0.27735 0.29883 0.39007 0.42321 1.3326 1.7854 0.82421 1.5156-0.66049-0.35056-1.0203-1.1068-1.5137-1.6797-0.0932 0.0309-0.20171 0.074-0.29883 0.10742 0.47214 0.64363 0.82319 1.4534 1.082 2.3477 1.5642 0.32938 3.6838 1.017 5.3105 1.3867 0.0722-0.21712 0.14818-0.4226 0.22656-0.61328-0.97038-0.81077-1.2235-1.0147 0.0391-0.10547-0.0137 0.0319-0.0256 0.0727-0.0391 0.10547 0.21058 0.17594 0.32163 0.2705 0.63282 0.53321-1.0655-2.6572-4.8997-5.236-7.7676-6.8652zm6.9082 6.9453c-0.35206 1.0584-0.63533 2.4042-0.90625 3.8106 0.19833 0.082 0.39655 0.16444 0.59571 0.2461 1.4414-1.2374 1.711-2.5685 1.2715-3.8867-0.29524-0.0407-0.60254-0.0885-0.96094-0.16993zm-0.90625 3.8106c-0.24577-0.10166-0.49151-0.20461-0.73437-0.30859 0.18573 0.40529 0.35295 0.78367 0.50781 1.1582 0.0235-0.0154 0.0491-0.0295 0.0723-0.0449 0.0508-0.26962 0.10285-0.53764 0.15429-0.80469zm-0.73437-0.30859c-0.26071-0.5689-0.52483-1.1438-0.85352-1.7656-0.18119-0.3428-1.4368-1.1-2.5-1.7109 0.0105 0.0658 0.0256 0.12894 0.0352 0.19532 1.2639 0.83003 2.6495 1.8726 1.3281 1.9609-0.42353-0.54052-0.85035-1.0774-1.2773-1.6152 0.0499 0.4219 0.0837 0.85066 0.0977 1.2852 0.95387 0.65023 2.0422 1.1675 3.1699 1.6504zm-3.2676-2.9356c-0.0139-0.11718-0.0341-0.22998-0.0508-0.3457-0.16576-0.10887-0.29955-0.19558-0.45313-0.29297 0.1682 0.21281 0.33525 0.42622 0.50391 0.63867zm-0.0859-0.54102c-0.0783-0.4909-0.18565-0.96039-0.3164-1.4121-0.43033-0.0906-0.84631-0.17341-1.1641-0.19141 0.52131 0.6405 1.0339 1.3037 0.54102 0.78516-0.0841-0.0885-0.16452-0.18054-0.24805-0.26954 0.19171 0.24689 0.38273 0.49468 0.57617 0.74024 0.18942 0.10489 0.33498 0.18884 0.61133 0.34765zm-1.1875-1.0879c-0.13286-0.1711-0.26676-0.34166-0.39844-0.51367-0.0248-0.00057-0.0465-0.00005-0.0703 0 0.15688 0.17054 0.31017 0.34471 0.46875 0.51367zm-0.39844-0.51367c0.0371 0.00086 0.0662-0.004 0.10547-0.002-0.14601-0.1794-0.22567-0.27209-0.35351-0.42383-0.004 0.0303-0.007 0.0594-0.0117 0.0898 0.0854 0.11284 0.17375 0.22358 0.25976 0.33594zm-3.3809-6.5312c-0.20509 0.0761-0.37951 0.17721-0.54101 0.28907 0.18387 0.0528 0.36489 0.11648 0.52539 0.17382 0.007-0.15545 0.019-0.31611 0.0156-0.46289zm-28.402-11.902c0.0546 0.17236 0.10174 0.34827 0.14063 0.5293 0.47009 0.26492 0.93172 0.53887 1.3867 0.82031 0.0238-0.26216 0.071-0.5 0.11915-0.73828-0.52175-0.20223-1.0622-0.40641-1.6465-0.61133zm16.602 13.318c-0.0181 0.0118-0.0366 0.0234-0.0547 0.0351 0.0115 0.0508 0.0234 0.1014 0.0351 0.15235 0.0193-0.0146 0.039-0.0284 0.0586-0.043-0.0131-0.0482-0.0257-0.0963-0.0391-0.14453zm0.38282 1.6602c-0.005 0.008-0.0121 0.0195-0.0176 0.0274 0.0169 0.0594 0.0295 0.11811 0.0469 0.17773 0.003-0.003 0.007-0.005 0.01-0.008-0.0104-0.0656-0.0275-0.13161-0.0391-0.19727zm-251.95 16.81c-0.005 0.004-0.01012 0.009-0.01562 0.0137-0.0004 0.007-0.002 0.016-0.002 0.0234 0.005-0.0126 0.01238-0.0245 0.01758-0.0371zm-0.55469 0.47656c-0.37446 0.33909-0.72698 0.68837-1.0371 1.0566-1.7384 2.0642-2.2603 3.2761-2.0879 5.2793 0.31086-1.2169 1.0534-2.136 2.1055-2.7617 0.18242-1.0897 0.51568-2.1535 0.86133-3.2031 0.0421-0.12788 0.10529-0.24747 0.1582-0.3711zm1.6582 2.5469c-0.51084-0.015-1.0128 0.10782-1.4941 0.37695 0.006 0.0358 0.01313 0.0717 0.01953 0.10742 0.63295-0.20992 1.335-0.34093 2.0938-0.39648-0.20663-0.0478-0.41418-0.0819-0.61914-0.0879zm-1.4746 0.48437c-0.13936 0.0462-0.27968 0.0909-0.41211 0.14453-0.0837 0.0632-0.16411 0.14359-0.2461 0.2168-0.24662 0.5724-0.19333 1.3042-0.19921 1.9961 0.41486-0.34221 0.82922-0.68471 1.2461-1.0254-0.1796-0.43701-0.30738-0.88244-0.38867-1.332zm-0.41211 0.14453c0.12899-0.0974 0.26005-0.17785 0.39258-0.25195-0.0158-0.0969-0.03558-0.19382-0.04688-0.29102-0.13442 0.13554-0.28462 0.27944-0.38281 0.39649-0.0558 0.0665-0.08519 0.14673-0.12695 0.2207 0.0552-0.0242 0.10761-0.0514 0.16406-0.0742zm-0.88867 0.91016c-0.53823 0.71061-1.0241 1.6807-1.4277 2.9531 0.33783-0.32986 0.69217-0.64667 1.0527-0.95899 0.0965-0.66275 0.26677-1.4174 0.375-1.9941zm213.3 9.6055c-0.12263 0.004-0.24766 0.0172-0.37109 0.0254 0.29615 0.16345 0.59353 0.32465 0.89062 0.48633-0.01-0.016-0.0364-0.0308-0.0391-0.0469-0.034-0.204 0.63385-0.43237 0.42773-0.44922-0.29943-0.0245-0.60225-0.0264-0.9082-0.0156zm-3.1133 0.83203c-0.0413 0.0847-0.0748 0.1578-0.11719 0.24414 0.0718 0.57814-0.4589 2.9048 0.16016 1.6621 0.0144-0.50854-0.01-1.1889-0.043-1.9062zm-200.46 3.0215c-0.0512 0.0408-0.0985 0.0808-0.15039 0.1211 0.025 0.008 0.05313 0.0151 0.07813 0.0234 0.026-0.0462 0.04896-0.0953 0.07226-0.14454zm297.31 1.3223c-0.29483 0.21032-0.65453 0.47552-0.84766 0.60352-0.0186 0.0335-0.0574 0.10993-0.0801 0.15234 0.1931-0.0635 0.46767-0.23905 0.83399-0.54492 0.0319-0.0701 0.0615-0.14103 0.0937-0.21094zm-101.85 1.834c0.0325 0.0306 0.0653 0.0611 0.0977 0.0918 0.007 0.005 0.0127 0.0121 0.0195 0.0176-0.0233-0.0232-0.0765-0.0781-0.10352-0.10547-0.005-0.001-0.009-0.003-0.0137-0.004zm96.156 4.0938c-0.008-0.14723-2.1055 1.0978-2.7285 1.7246-0.07 0.0704-0.14645 0.1762-0.22266 0.28321 0.004 0.011 0.008 0.0222 0.0117 0.0332 1.0773-0.66508 2.2334-1.3827 2.8027-1.8867 0.0945-0.0837 0.13782-0.13326 0.13672-0.1543zm200.12 68.293c-1.9128 0.36833-3.5356 6.0015-5.8242 20.211-2.5978 16.129-3.548 26.254-5.707 60.758-4.8188 77.014-6.0759 126.4-3.7461 147.28 2.6812 24.021 10.788 40.549 28.637 58.383 10.086 10.078 18.449 15.29 29.537 18.41v-0.004c9.675 2.7223 22.426 0.3426 33.473-6.248 7.7804-4.6412 20.304-16.758 28.32-27.398 13.027-17.293 23.498-41.789 25.895-60.584 0.34831-2.7312 0.94524-4.7716 1.3281-4.5352 1.025 0.6332 1.8332-13.846 1.2227-21.912-0.29045-3.8377-0.89547-6.7514-1.3438-6.4746-0.44827 0.27682-0.81446-0.54507-0.81446-1.8262 0-3.69-3.7289-14.9-6.6836-20.092-1.4856-2.6106-4.3306-6.3227-6.3223-8.248-4.9605-4.7962-14.34-10.264-17.604-10.264-3.5629 0-4.4552 2.4782-5.5098 15.398-1.8442 22.645-14.639 50.565-44.93 98.045-14.19 22.243-19.859 30.379-21.168 30.379-1.4887 0-2.7317-3.0132-7.4375-18.037l-5.6484-18.037-0.0664-12.816c-0.11307-22.097 4.036-36.454 23.184-80.217 14.192-32.436 20.204-61.927 15.709-77.053-3.7938-12.764-20.798-40.734-35.518-58.422-8.1462-9.7893-16.534-17.165-18.982-16.693zm-413.39 14.572c-5.9087-0.37564-31.865 20.152-40.41 32.197-9.5719 13.493-13.028 24.574-13.035 41.793-0.009 19.461 5.076 38.542 18.678 70.078 8.0854 18.768 14.537 37.262 17.758 50.961 1.7251 7.3326 2.1332 11.947 2.1816 24.682 0.0591 15.568 0.0419 15.697-2.791 21.316-1.5677 3.1094-3.952 6.4502-5.2988 7.4219-3.6136 2.6068-8.6632 3.4987-11.961 2.1133-10.853-4.5596-36.651-51.655-49.857-91.02-4.0684-12.127-4.8679-15.757-5.6465-25.633-1.0523-13.346-1.1859-13.877-3.5-13.877-2.6176 0-13.092 7.9458-21.16 16.062-7.8325 7.8699-12.533 16.052-14.441 25.137-0.59999 2.8669-1.3743 5.0233-1.7227 4.8144-1.0666-0.66452-1.8081 10.109-1.1973 17.391 0.31755 3.7878 0.8199 6.6361 1.1172 6.3418 0.29739-0.29429 1.2708 2.8574 2.1641 7.0058 5.1876 24.094 23.802 55.563 45.877 77.559 10.009 9.9678 17.63 14.924 25.469 16.557l0.002-0.004c11.95 2.4853 24.93-2.6362 42.5-16.773 13.567-10.915 23.137-24.112 30.107-41.52 15.104-37.719 16.686-83.237 4.2441-122.06-8.7297-27.243-13.07-51.75-14.375-81.166-0.9922-22.366-1.8523-28.372-4.1934-29.27-0.14762-0.0566-0.3172-0.0914-0.50781-0.10351zm206.86 203.92c-0.005 0.005-0.0104 0.0105-0.0156 0.0156l0.004 0.008c0.004-0.008 0.008-0.0156 0.0117-0.0234zm-0.10351 0.11915c-0.044 0.10113-0.0853 0.20341-0.12891 0.30468 0.0558-0.095 0.10959-0.18379 0.16406-0.28711-0.0115-0.006-0.0236-0.0114-0.0352-0.0176zm-116.14 79.41c-0.0123 0.0444-0.0208 0.0842-0.0332 0.12891 0.0911-0.001 0.18236-0.003 0.27343-0.004-0.084-0.0426-0.16021-0.0835-0.24023-0.125z"/>
 <path id="path3426" fill-opacity=".80784" fill="#1f1b54" d="m488.14 259.77c-37.645-0.15685-72.453 2.4123-93.912 7.4375-11.892 2.7848-18 5.4517-25.424 11.102-17.36 13.211-21.874 13.068-40.766-1.2832-10.604-8.0556-17.602-11.631-27.916-14.268-9.8365-2.5143-51.945-2.2901-87.83 0.46874-48.699 3.7438-103.32 6.8357-120.96 6.8477-25.421 0.0171-39.207 5.5834-38.473 15.533 0.23392 3.1706 0.85803 4.2577 3.4336 5.9863 6.0427 4.056 11.722 4.6034 46.258 4.4648 20.425-0.0819 49.771-1.0459 79.809-2.623 110.68-5.8098 129.29-4.4803 141.26 10.092 7.3539 8.9521 15.4 16.441 18.83 17.523h0.004c5.9933 1.8933 9.8473 1.4209 16.738-2.0527 3.7035-1.8674 10.042-6.4403 14.615-10.543 9.3614-8.3993 12.672-10.274 22.643-12.822 17.653-4.5118 45.741-4.3836 129.38 0.59179 22.209 1.3212 52.777 2.6616 67.932 2.9785 37.629 0.78699 48.412-0.82037 51.684-7.707 1.7056-3.5897 0.24297-6.4828-5.1445-10.172-10.674-7.3088-43.469-14.476-83.605-18.271-22.361-2.1143-45.969-3.1891-68.557-3.2832zm32.15 75.863c-20.073 0.003-40.302 0.31928-51.131 0.94531-43.473 2.5138-75.103 8.1692-80.889 14.465-9.5123 10.352-12.57 12.9-17.879 14.896-12.426 4.6738-28.806 4.9601-40.516 0.70703-7.9069-2.8726-11.744-5.7385-17.086-12.768-2.2847-3.006-5.956-6.4617-8.1602-7.6797-4.8703-2.6912-17.791-5.391-32.484-6.7871-30.974-2.9419-162.03-2.9373-189.55 0.008-15.467 1.6553-24.558 4.1017-27.99 7.5312-2.2909 2.289-2.5643 7.2681-0.55468 10.135 5.5581 7.9363 33.659 10.729 108.83 10.805 99.239 0.10443 121.34 3.322 138.17 20.125 9.8299 9.8217 14.73 22.453 18.273 47.109 2.3033 16.034 2.6474 77.724 0.88282 158.19-3.1448 143.43-5.463 168.21-16.691 178.35-4.2146 3.8046-8.0554 4.8026-16.215 4.2129-11.095-0.80218-16.245-8.1182-18.922-26.869-3.1941-22.375-3.4527-78.556-1.3047-284.56l0.63086-60.52-78.301 0.006c-105.75 0.006-126.83 1.4919-134.86 9.5098-2.8816 2.879-2.5262 8.4975 0.73437 11.605 8.1139 7.7363 26.653 9.2489 113.42 9.2539 52.031 0.003 61.576 0.21108 62.529 1.3594 0.8704 1.048 0.67925 8.957-0.83985 34.887-1.0805 18.443-3.4559 59.165-5.2793 90.492-7.6712 131.79-14.067 206.53-19.557 228.47-3.1744 12.692-2.1755 15.44 6.6445 18.283 4.457 1.437 18.474 3.1908 29.539 3.6953v0.0176c12.171 0.55512 258.43 0.63513 258.43 0.084 0-0.30948-1.9044-12.805-4.2324-27.768-6.6223-42.565-9.2561-65.992-14.74-131.16-6.4302-76.411-15.554-215.39-14.244-216.97 0.781-0.9401 16.561-1.2953 72.926-1.6426 73.057-0.45017 83.08-0.91864 95.314-4.457 8.5424-2.4711 12.878-8.3563 10.207-13.855-2.9121-5.9934-15.325-9.1479-42.623-10.828-17.967-1.1057-173.56-1.3396-174.13-0.26172-0.2071 0.38922 1.074 50.267 2.8477 110.83 3.5754 122.09 4.6163 223.96 2.4141 236.38-3.2114 18.112-7.3866 23.071-20.188 23.986-18.663 1.3338-24.618-4.5195-28.49-27.998-3.2178-19.518-4.8512-51.785-6.668-131.75-2.6136-115.03-2.2997-153.92 1.4609-180.86 5.9163-42.389 21.471-58.768 61.238-64.48 14.933-2.1451 35.232-2.8946 79.334-2.9316 98.26-0.0826 121.96-2.7154 125.36-13.932 2.4057-7.9339-25.222-14.289-75.473-17.357-10.201-0.62294-30.117-0.93264-50.189-0.92968z"/>
</svg>
